<?xml version="1.0" encoding="UTF-8"?>
<svg id="Layer_2" data-name="Layer 2" xmlns="http://www.w3.org/2000/svg" xmlns:xlink="http://www.w3.org/1999/xlink" viewBox="0 0 3873 3873">
  <defs>
    <style>
      .cls-1 {
        fill: url(#linear-gradient-4);
      }

      .cls-1, .cls-2, .cls-3, .cls-4, .cls-5 {
        fill-rule: evenodd;
      }

      .cls-2 {
        fill: url(#linear-gradient-2);
      }

      .cls-3 {
        fill: url(#linear-gradient);
      }

      .cls-4 {
        fill: url(#linear-gradient-5);
      }

      .cls-6 {
        fill: none;
      }

      .cls-5 {
        fill: url(#linear-gradient-3);
      }
    </style>
    <linearGradient id="linear-gradient" x1="3476.27" y1="200.27" x2="3477.97" y2="198.1" gradientTransform="translate(-249670.91 -13110.95) scale(72)" gradientUnits="userSpaceOnUse">
      <stop offset="0" stop-color="#f40768"/>
      <stop offset=".43" stop-color="#806fb7"/>
      <stop offset="1" stop-color="#25c1f7"/>
    </linearGradient>
    <linearGradient id="linear-gradient-2" x1="3492.26" y1="205.1" x2="3493.2" y2="203.91" xlink:href="#linear-gradient"/>
    <linearGradient id="linear-gradient-3" x1="3484.51" y1="218.83" x2="3502.42" y2="203.66" xlink:href="#linear-gradient"/>
    <linearGradient id="linear-gradient-4" x1="3485.81" y1="196.1" x2="3503.3" y2="191.84" xlink:href="#linear-gradient"/>
    <linearGradient id="linear-gradient-5" x1="3492.21" y1="215.49" x2="3496.9" y2="213.93" xlink:href="#linear-gradient"/>
  </defs>
  <g id="Layer_1-2" data-name="Layer 1">
    <g id="Layer_1-3" data-name="Layer_1">
      <path class="cls-3" d="M767.3,1402.1h-171.1c-16.7,0-30.3-13.5-30.3-30.3v-283.4c0-16.7,13.5-30.3,30.3-30.3h171.1c16.7,0,30.3,13.5,30.3,30.3s-13.5,30.3-30.3,30.3h-140.8v222.9h140.9c16.7,0,30.3,13.5,30.3,30.3-.1,16.6-13.6,30.2-30.4,30.2h0Z"/>
      <path class="cls-2" d="M1652.7,2371.2c-2,0-4.1-.2-6.2-.6-237.9-49.4-459.8-160-641.8-319.8-198.3-174.1-345.3-399.2-437.1-669.2-5.4-15.8,3.1-33,18.9-38.4,15.8-5.4,33,3.1,38.4,18.9,170.8,502.2,547.6,848.2,1033.9,949.2,16.4,3.4,26.9,19.4,23.5,35.8-3,14.3-15.6,24.1-29.6,24.1h0Zm1581.2-969.1h-128.3c-16.7,0-30.3-13.5-30.3-30.3s13.5-30.3,30.3-30.3h140.9v-222.9h-140.9c-16.7,0-30.3-13.5-30.3-30.3s13.5-30.3,30.3-30.3h171.1c16.7,0,30.3,13.5,30.3,30.3v283.2c0,.8,0,1.5-.1,2.3v.3l-.1,.7v.1l-.1,.7c-.3,2.4-.9,4.7-1.7,6.9-91.8,269.4-238.6,494.2-436.5,668-181.9,159.8-403.7,270.4-641.4,319.9-2.1,.4-4.2,.6-6.2,.6-14,0-26.6-9.8-29.6-24.1-3.4-16.4,7.1-32.4,23.4-35.8,473.1-98.5,842.5-428.8,1019.2-909h0Z"/>
      <path class="cls-5" d="M1132.7,3271.9c-262.5-66.6-395.6-161.3-395.6-281.6v-76.7c10.2,10.5,21.4,20.7,33.5,30.7,72.1,59.4,178.8,110,319.5,151.3,236,69.3,549.7,105.3,862.5,105.7,307,.4,613.7-33.3,845.9-103.3,135.7-40.9,238.6-91.6,308.1-151.6,10.4-9,20.1-18.1,29-27.5v71.4c0,122.4-128,217.8-380.5,283.5-444.6,115.8-1179,110.5-1622.4-1.9h0Zm-395.6-459.6v-966.8c65.7,90.9,141.4,174.9,227.7,250.7,173.5,152.3,381.5,261.7,604.8,318.7,26.8,68.6,93.5,117.2,171.4,117.2h391.6c78,0,144.8-48.8,171.5-117.5,223.1-57.2,431-166.4,604.4-318.7,86.1-75.6,161.7-159.5,227.3-250.2l-.2,970c-14.9,30.2-37.7,58.6-68.5,85.2-63,54.3-158.4,100.9-285.9,139.3-226.9,68.4-527.3,101.4-828.6,100.9-307.2-.4-614.8-35.6-845.5-103.3-133-39-232.5-85.8-298.2-140-32.5-26.7-56.4-55.2-71.8-85.5h0Zm0-1329.9v-490.9c87.9,91.2,251.1,143.2,347.9,169.3,127.9,34.5,261.1,56.3,392.7,71,152.2,17,306,24.5,459.1,24.5s306.9-7.5,459.1-24.5c131.6-14.7,264.8-36.6,392.7-71,96.6-26,259.2-77.8,347.3-168.6l-.1,490.3c-165.7,368.9-463.1,645.5-858.9,751.8-33.7-42.6-85.9-70-144.3-70h-391.6c-58.5,0-110.7,27.4-144.4,70.1-396.1-106.2-693.8-382.9-859.5-752h0Z"/>
      <path class="cls-1" d="M1936.8,1195.8c-315.4,0-612.3-33.2-836.1-93.5-234.5-63.2-363.6-150.9-363.6-247.2s129.1-184,363.6-247.2c223.8-60.3,520.7-93.5,836.1-93.5s612.3,33.2,836.1,93.5c234.5,63.2,363.7,150.9,363.7,247.2s-129.1,184.1-363.7,247.2c-223.7,60.3-520.7,93.5-836.1,93.5Zm973.9-340.6c-13.5-6.9-28.6-13.6-44.2-20.1-54.6-22.6-115.2-41-141.7-48.2-113.4-30.5-235-51.4-358-65-144.5-16-291.6-22-429.9-22s-285.4,6-429.9,22c-123.1,13.6-244.7,34.5-358,65-26.5,7.1-87.1,25.6-141.7,48.2-15.6,6.5-30.7,13.2-44.2,20.1,13.5,6.9,28.6,13.6,44.2,20.1,54.6,22.6,115.1,41,141.7,48.2,113.4,30.5,235,51.4,358,65,144.5,16,291.6,22,429.9,22s285.4-6,429.9-22c123.1-13.6,244.7-34.5,358-65,26.5-7.1,87.1-25.6,141.7-48.2,15.6-6.5,30.7-13.3,44.2-20.1h0Zm-21.3-75.9c37.2,15.4,72.5,32.9,95.7,50.9,2.5,1.7,4.7,3.7,6.7,6.2,10.4,13.1,8.2,32.1-4.9,42.5l-18.8-23.7,18.8,23.6c-23.2,18.5-59.3,36.4-97.5,52.3-58,24-121.4,43.3-149,50.8-116.3,31.3-241,52.7-367,66.7-147.6,16.3-296.8,22.5-436.6,22.5s-288.9-6.2-436.6-22.5c-126.1-14-250.7-35.3-367-66.7-27.6-7.4-91-26.8-149-50.8-37.2-15.4-72.5-32.9-95.7-50.9-2.5-1.7-4.7-3.7-6.7-6.2-10.4-13.1-8.2-32.1,4.9-42.5l18.8,23.7-18.8-23.6c23.2-18.5,59.3-36.4,97.5-52.3,58-24,121.4-43.3,149-50.8,116.3-31.3,241-52.7,367-66.7,147.6-16.3,296.8-22.5,436.6-22.5s288.9,6.2,436.6,22.5c126.1,14,250.7,35.4,367,66.7,27.6,7.4,91,26.8,149,50.8h0Z"/>
      <path class="cls-4" d="M2132.6,2471.6h-391.6c-68.1,0-123.4-55.4-123.4-123.4s55.4-123.4,123.4-123.4h391.6c68.1,0,123.4,55.4,123.4,123.4,.1,68-55.3,123.4-123.4,123.4Z"/>
      <path class="cls-6" d="M3186.5,2726.9c0,147.8-133.5,263-396.7,342.3-463.5,139.7-1228.9,133.3-1691.3-2.4-273.7-80.3-412.4-194.7-412.4-339.9"/>
    </g>
    <rect class="cls-6" width="3873" height="3873"/>
  </g>
</svg>